<mxfile host="Electron" agent="Mozilla/5.0 (Windows NT 10.0; Win64; x64) AppleWebKit/537.36 (KHTML, like Gecko) draw.io/28.1.2 Chrome/138.0.7204.243 Electron/37.4.0 Safari/537.36" version="28.1.2">
  <diagram name="Page-1" id="LczvQ1xk-zRkYuJD2nhS">
    <mxGraphModel dx="397" dy="2110" grid="1" gridSize="10" guides="1" tooltips="1" connect="1" arrows="1" fold="1" page="1" pageScale="1" pageWidth="850" pageHeight="1100" math="0" shadow="0">
      <root>
        <mxCell id="0" />
        <mxCell id="1" parent="0" />
        <mxCell id="drmTM1Dk9brN68vKP4_C-1" value="MySQL&lt;br&gt;Database" style="shape=datastore;whiteSpace=wrap;html=1;" parent="1" vertex="1">
          <mxGeometry x="640" y="320" width="120" height="120" as="geometry" />
        </mxCell>
        <mxCell id="drmTM1Dk9brN68vKP4_C-2" value="Spring&amp;nbsp;&lt;span style=&quot;background-color: transparent; color: light-dark(rgb(0, 0, 0), rgb(255, 255, 255));&quot;&gt;JPA Repository&lt;/span&gt;" style="rounded=0;whiteSpace=wrap;html=1;" parent="1" vertex="1">
          <mxGeometry x="520" y="320" width="80" height="120" as="geometry" />
        </mxCell>
        <mxCell id="drmTM1Dk9brN68vKP4_C-3" value="Login&lt;div&gt;Service&lt;/div&gt;" style="rounded=0;whiteSpace=wrap;html=1;" parent="1" vertex="1">
          <mxGeometry x="400" y="320" width="80" height="120" as="geometry" />
        </mxCell>
        <mxCell id="drmTM1Dk9brN68vKP4_C-5" value="" style="endArrow=classic;startArrow=classic;html=1;rounded=0;exitX=1;exitY=0.5;exitDx=0;exitDy=0;entryX=0;entryY=0.5;entryDx=0;entryDy=0;" parent="1" source="drmTM1Dk9brN68vKP4_C-2" target="drmTM1Dk9brN68vKP4_C-1" edge="1">
          <mxGeometry width="50" height="50" relative="1" as="geometry">
            <mxPoint x="620" y="530" as="sourcePoint" />
            <mxPoint x="670" y="480" as="targetPoint" />
          </mxGeometry>
        </mxCell>
        <mxCell id="drmTM1Dk9brN68vKP4_C-6" value="" style="endArrow=classic;startArrow=classic;html=1;rounded=0;exitX=1;exitY=0.5;exitDx=0;exitDy=0;entryX=0;entryY=0.5;entryDx=0;entryDy=0;" parent="1" source="drmTM1Dk9brN68vKP4_C-3" target="drmTM1Dk9brN68vKP4_C-2" edge="1">
          <mxGeometry width="50" height="50" relative="1" as="geometry">
            <mxPoint x="310" y="540" as="sourcePoint" />
            <mxPoint x="360" y="490" as="targetPoint" />
          </mxGeometry>
        </mxCell>
        <mxCell id="drmTM1Dk9brN68vKP4_C-7" value="extends" style="endArrow=classic;html=1;rounded=0;entryX=0.5;entryY=1;entryDx=0;entryDy=0;exitX=0.5;exitY=0;exitDx=0;exitDy=0;" parent="1" source="drmTM1Dk9brN68vKP4_C-105" target="drmTM1Dk9brN68vKP4_C-2" edge="1">
          <mxGeometry x="-0.098" relative="1" as="geometry">
            <mxPoint x="560" y="520" as="sourcePoint" />
            <mxPoint x="560" y="520" as="targetPoint" />
            <Array as="points">
              <mxPoint x="685" y="520" />
              <mxPoint x="560" y="520" />
            </Array>
            <mxPoint as="offset" />
          </mxGeometry>
        </mxCell>
        <mxCell id="drmTM1Dk9brN68vKP4_C-14" value="Rest Controller" style="rounded=0;whiteSpace=wrap;html=1;" parent="1" vertex="1">
          <mxGeometry x="280" y="320" width="80" height="120" as="geometry" />
        </mxCell>
        <mxCell id="drmTM1Dk9brN68vKP4_C-15" value="" style="endArrow=classic;startArrow=classic;html=1;rounded=0;exitX=1;exitY=0.5;exitDx=0;exitDy=0;entryX=0;entryY=0.5;entryDx=0;entryDy=0;" parent="1" source="drmTM1Dk9brN68vKP4_C-14" target="drmTM1Dk9brN68vKP4_C-3" edge="1">
          <mxGeometry width="50" height="50" relative="1" as="geometry">
            <mxPoint x="310" y="580" as="sourcePoint" />
            <mxPoint x="360" y="530" as="targetPoint" />
          </mxGeometry>
        </mxCell>
        <mxCell id="drmTM1Dk9brN68vKP4_C-17" style="edgeStyle=orthogonalEdgeStyle;rounded=0;orthogonalLoop=1;jettySize=auto;html=1;entryX=0.5;entryY=1;entryDx=0;entryDy=0;" parent="1" source="drmTM1Dk9brN68vKP4_C-16" target="drmTM1Dk9brN68vKP4_C-14" edge="1">
          <mxGeometry relative="1" as="geometry" />
        </mxCell>
        <mxCell id="drmTM1Dk9brN68vKP4_C-18" value="extends" style="edgeLabel;html=1;align=center;verticalAlign=middle;resizable=0;points=[];" parent="drmTM1Dk9brN68vKP4_C-17" vertex="1" connectable="0">
          <mxGeometry x="-0.025" y="1" relative="1" as="geometry">
            <mxPoint as="offset" />
          </mxGeometry>
        </mxCell>
        <mxCell id="drmTM1Dk9brN68vKP4_C-16" value="EALoginController&lt;div&gt;&amp;lt;L extends EALogin&amp;gt;&lt;/div&gt;" style="rounded=0;whiteSpace=wrap;html=1;" parent="1" vertex="1">
          <mxGeometry x="260" y="520" width="120" height="40" as="geometry" />
        </mxCell>
        <mxCell id="drmTM1Dk9brN68vKP4_C-21" style="edgeStyle=orthogonalEdgeStyle;rounded=0;orthogonalLoop=1;jettySize=auto;html=1;entryX=0.5;entryY=1;entryDx=0;entryDy=0;" parent="1" source="drmTM1Dk9brN68vKP4_C-20" target="drmTM1Dk9brN68vKP4_C-3" edge="1">
          <mxGeometry relative="1" as="geometry" />
        </mxCell>
        <mxCell id="drmTM1Dk9brN68vKP4_C-22" value="extends" style="edgeLabel;html=1;align=center;verticalAlign=middle;resizable=0;points=[];" parent="drmTM1Dk9brN68vKP4_C-21" vertex="1" connectable="0">
          <mxGeometry x="-0.1571" y="1" relative="1" as="geometry">
            <mxPoint as="offset" />
          </mxGeometry>
        </mxCell>
        <mxCell id="drmTM1Dk9brN68vKP4_C-20" value="EALoginService&lt;div&gt;&amp;lt;L extends EALogin&amp;gt;&lt;/div&gt;" style="rounded=0;whiteSpace=wrap;html=1;" parent="1" vertex="1">
          <mxGeometry x="380" y="580" width="120" height="40" as="geometry" />
        </mxCell>
        <mxCell id="drmTM1Dk9brN68vKP4_C-24" value="Client" style="shape=umlActor;verticalLabelPosition=bottom;verticalAlign=top;html=1;outlineConnect=0;" parent="1" vertex="1">
          <mxGeometry x="150" y="340" width="40" height="80" as="geometry" />
        </mxCell>
        <mxCell id="drmTM1Dk9brN68vKP4_C-30" value="" style="endArrow=classic;html=1;rounded=0;endSize=6;jumpSize=6;" parent="1" edge="1">
          <mxGeometry width="50" height="50" relative="1" as="geometry">
            <mxPoint x="280" y="400" as="sourcePoint" />
            <mxPoint x="190" y="400" as="targetPoint" />
          </mxGeometry>
        </mxCell>
        <mxCell id="drmTM1Dk9brN68vKP4_C-31" value="" style="endArrow=classic;html=1;rounded=0;exitX=1;exitY=0.375;exitDx=0;exitDy=0;exitPerimeter=0;" parent="1" source="drmTM1Dk9brN68vKP4_C-24" edge="1">
          <mxGeometry width="50" height="50" relative="1" as="geometry">
            <mxPoint x="260" y="420" as="sourcePoint" />
            <mxPoint x="280" y="370" as="targetPoint" />
          </mxGeometry>
        </mxCell>
        <mxCell id="drmTM1Dk9brN68vKP4_C-32" value="HTTP REST&lt;div&gt;Requests,&lt;/div&gt;&lt;div&gt;Auth Cookie&lt;/div&gt;" style="text;html=1;align=center;verticalAlign=middle;resizable=0;points=[];autosize=1;strokeColor=none;fillColor=none;" parent="1" vertex="1">
          <mxGeometry x="190" y="310" width="90" height="60" as="geometry" />
        </mxCell>
        <mxCell id="drmTM1Dk9brN68vKP4_C-33" value="HTTP&lt;div&gt;Response,&lt;/div&gt;&lt;div&gt;Auth Cookie&lt;/div&gt;" style="text;html=1;align=center;verticalAlign=middle;resizable=0;points=[];autosize=1;strokeColor=none;fillColor=none;" parent="1" vertex="1">
          <mxGeometry x="190" y="400" width="90" height="60" as="geometry" />
        </mxCell>
        <mxCell id="drmTM1Dk9brN68vKP4_C-34" value="" style="endArrow=classic;html=1;rounded=0;entryX=1;entryY=0.5;entryDx=0;entryDy=0;exitX=0.5;exitY=1;exitDx=0;exitDy=0;" parent="1" source="drmTM1Dk9brN68vKP4_C-77" target="drmTM1Dk9brN68vKP4_C-1" edge="1">
          <mxGeometry width="50" height="50" relative="1" as="geometry">
            <mxPoint x="820" y="380" as="sourcePoint" />
            <mxPoint x="510" y="550" as="targetPoint" />
            <Array as="points">
              <mxPoint x="1070" y="380" />
            </Array>
          </mxGeometry>
        </mxCell>
        <mxCell id="drmTM1Dk9brN68vKP4_C-77" value="" style="rounded=0;whiteSpace=wrap;html=1;fillColor=none;" parent="1" vertex="1">
          <mxGeometry x="840" y="-30" width="460" height="350" as="geometry" />
        </mxCell>
        <mxCell id="drmTM1Dk9brN68vKP4_C-78" value="G" style="group" parent="1" vertex="1" connectable="0">
          <mxGeometry x="860" width="420" height="300" as="geometry" />
        </mxCell>
        <mxCell id="drmTM1Dk9brN68vKP4_C-35" value="Login" style="shape=table;startSize=30;container=1;collapsible=1;childLayout=tableLayout;fixedRows=1;rowLines=0;fontStyle=1;align=center;resizeLast=1;html=1;" parent="drmTM1Dk9brN68vKP4_C-78" vertex="1">
          <mxGeometry width="180" height="120" as="geometry" />
        </mxCell>
        <mxCell id="drmTM1Dk9brN68vKP4_C-36" value="" style="shape=tableRow;horizontal=0;startSize=0;swimlaneHead=0;swimlaneBody=0;fillColor=none;collapsible=0;dropTarget=0;points=[[0,0.5],[1,0.5]];portConstraint=eastwest;top=0;left=0;right=0;bottom=1;" parent="drmTM1Dk9brN68vKP4_C-35" vertex="1">
          <mxGeometry y="30" width="180" height="30" as="geometry" />
        </mxCell>
        <mxCell id="drmTM1Dk9brN68vKP4_C-37" value="PK" style="shape=partialRectangle;connectable=0;fillColor=none;top=0;left=0;bottom=0;right=0;fontStyle=1;overflow=hidden;whiteSpace=wrap;html=1;" parent="drmTM1Dk9brN68vKP4_C-36" vertex="1">
          <mxGeometry width="30" height="30" as="geometry">
            <mxRectangle width="30" height="30" as="alternateBounds" />
          </mxGeometry>
        </mxCell>
        <mxCell id="drmTM1Dk9brN68vKP4_C-38" value="LoginID" style="shape=partialRectangle;connectable=0;fillColor=none;top=0;left=0;bottom=0;right=0;align=left;spacingLeft=6;fontStyle=5;overflow=hidden;whiteSpace=wrap;html=1;" parent="drmTM1Dk9brN68vKP4_C-36" vertex="1">
          <mxGeometry x="30" width="150" height="30" as="geometry">
            <mxRectangle width="150" height="30" as="alternateBounds" />
          </mxGeometry>
        </mxCell>
        <mxCell id="drmTM1Dk9brN68vKP4_C-39" value="" style="shape=tableRow;horizontal=0;startSize=0;swimlaneHead=0;swimlaneBody=0;fillColor=none;collapsible=0;dropTarget=0;points=[[0,0.5],[1,0.5]];portConstraint=eastwest;top=0;left=0;right=0;bottom=0;" parent="drmTM1Dk9brN68vKP4_C-35" vertex="1">
          <mxGeometry y="60" width="180" height="30" as="geometry" />
        </mxCell>
        <mxCell id="drmTM1Dk9brN68vKP4_C-40" value="" style="shape=partialRectangle;connectable=0;fillColor=none;top=0;left=0;bottom=0;right=0;editable=1;overflow=hidden;whiteSpace=wrap;html=1;" parent="drmTM1Dk9brN68vKP4_C-39" vertex="1">
          <mxGeometry width="30" height="30" as="geometry">
            <mxRectangle width="30" height="30" as="alternateBounds" />
          </mxGeometry>
        </mxCell>
        <mxCell id="drmTM1Dk9brN68vKP4_C-41" value="Username" style="shape=partialRectangle;connectable=0;fillColor=none;top=0;left=0;bottom=0;right=0;align=left;spacingLeft=6;overflow=hidden;whiteSpace=wrap;html=1;" parent="drmTM1Dk9brN68vKP4_C-39" vertex="1">
          <mxGeometry x="30" width="150" height="30" as="geometry">
            <mxRectangle width="150" height="30" as="alternateBounds" />
          </mxGeometry>
        </mxCell>
        <mxCell id="drmTM1Dk9brN68vKP4_C-42" value="" style="shape=tableRow;horizontal=0;startSize=0;swimlaneHead=0;swimlaneBody=0;fillColor=none;collapsible=0;dropTarget=0;points=[[0,0.5],[1,0.5]];portConstraint=eastwest;top=0;left=0;right=0;bottom=0;" parent="drmTM1Dk9brN68vKP4_C-35" vertex="1">
          <mxGeometry y="90" width="180" height="30" as="geometry" />
        </mxCell>
        <mxCell id="drmTM1Dk9brN68vKP4_C-43" value="" style="shape=partialRectangle;connectable=0;fillColor=none;top=0;left=0;bottom=0;right=0;editable=1;overflow=hidden;whiteSpace=wrap;html=1;" parent="drmTM1Dk9brN68vKP4_C-42" vertex="1">
          <mxGeometry width="30" height="30" as="geometry">
            <mxRectangle width="30" height="30" as="alternateBounds" />
          </mxGeometry>
        </mxCell>
        <mxCell id="drmTM1Dk9brN68vKP4_C-44" value="Password" style="shape=partialRectangle;connectable=0;fillColor=none;top=0;left=0;bottom=0;right=0;align=left;spacingLeft=6;overflow=hidden;whiteSpace=wrap;html=1;" parent="drmTM1Dk9brN68vKP4_C-42" vertex="1">
          <mxGeometry x="30" width="150" height="30" as="geometry">
            <mxRectangle width="150" height="30" as="alternateBounds" />
          </mxGeometry>
        </mxCell>
        <mxCell id="drmTM1Dk9brN68vKP4_C-48" value="Authority" style="shape=table;startSize=30;container=1;collapsible=1;childLayout=tableLayout;fixedRows=1;rowLines=0;fontStyle=1;align=center;resizeLast=1;html=1;" parent="drmTM1Dk9brN68vKP4_C-78" vertex="1">
          <mxGeometry y="200" width="180" height="90" as="geometry" />
        </mxCell>
        <mxCell id="drmTM1Dk9brN68vKP4_C-49" value="" style="shape=tableRow;horizontal=0;startSize=0;swimlaneHead=0;swimlaneBody=0;fillColor=none;collapsible=0;dropTarget=0;points=[[0,0.5],[1,0.5]];portConstraint=eastwest;top=0;left=0;right=0;bottom=1;" parent="drmTM1Dk9brN68vKP4_C-48" vertex="1">
          <mxGeometry y="30" width="180" height="30" as="geometry" />
        </mxCell>
        <mxCell id="drmTM1Dk9brN68vKP4_C-50" value="FK" style="shape=partialRectangle;connectable=0;fillColor=none;top=0;left=0;bottom=0;right=0;fontStyle=1;overflow=hidden;whiteSpace=wrap;html=1;" parent="drmTM1Dk9brN68vKP4_C-49" vertex="1">
          <mxGeometry width="30" height="30" as="geometry">
            <mxRectangle width="30" height="30" as="alternateBounds" />
          </mxGeometry>
        </mxCell>
        <mxCell id="drmTM1Dk9brN68vKP4_C-51" value="AuthorityID" style="shape=partialRectangle;connectable=0;fillColor=none;top=0;left=0;bottom=0;right=0;align=left;spacingLeft=6;fontStyle=5;overflow=hidden;whiteSpace=wrap;html=1;" parent="drmTM1Dk9brN68vKP4_C-49" vertex="1">
          <mxGeometry x="30" width="150" height="30" as="geometry">
            <mxRectangle width="150" height="30" as="alternateBounds" />
          </mxGeometry>
        </mxCell>
        <mxCell id="drmTM1Dk9brN68vKP4_C-52" value="" style="shape=tableRow;horizontal=0;startSize=0;swimlaneHead=0;swimlaneBody=0;fillColor=none;collapsible=0;dropTarget=0;points=[[0,0.5],[1,0.5]];portConstraint=eastwest;top=0;left=0;right=0;bottom=0;" parent="drmTM1Dk9brN68vKP4_C-48" vertex="1">
          <mxGeometry y="60" width="180" height="30" as="geometry" />
        </mxCell>
        <mxCell id="drmTM1Dk9brN68vKP4_C-53" value="" style="shape=partialRectangle;connectable=0;fillColor=none;top=0;left=0;bottom=0;right=0;editable=1;overflow=hidden;whiteSpace=wrap;html=1;" parent="drmTM1Dk9brN68vKP4_C-52" vertex="1">
          <mxGeometry width="30" height="30" as="geometry">
            <mxRectangle width="30" height="30" as="alternateBounds" />
          </mxGeometry>
        </mxCell>
        <mxCell id="drmTM1Dk9brN68vKP4_C-54" value="AuthorityValue" style="shape=partialRectangle;connectable=0;fillColor=none;top=0;left=0;bottom=0;right=0;align=left;spacingLeft=6;overflow=hidden;whiteSpace=wrap;html=1;" parent="drmTM1Dk9brN68vKP4_C-52" vertex="1">
          <mxGeometry x="30" width="150" height="30" as="geometry">
            <mxRectangle width="150" height="30" as="alternateBounds" />
          </mxGeometry>
        </mxCell>
        <mxCell id="drmTM1Dk9brN68vKP4_C-58" value="" style="edgeStyle=entityRelationEdgeStyle;fontSize=12;html=1;endArrow=ERoneToMany;rounded=0;exitX=1;exitY=0.5;exitDx=0;exitDy=0;entryX=0;entryY=0.5;entryDx=0;entryDy=0;" parent="drmTM1Dk9brN68vKP4_C-78" source="drmTM1Dk9brN68vKP4_C-36" target="drmTM1Dk9brN68vKP4_C-67" edge="1">
          <mxGeometry width="100" height="100" relative="1" as="geometry">
            <mxPoint x="440" y="105" as="sourcePoint" />
            <mxPoint x="440" y="275" as="targetPoint" />
            <Array as="points">
              <mxPoint x="210" y="120" />
              <mxPoint x="200" y="70" />
              <mxPoint x="210" y="120" />
              <mxPoint x="200" y="50" />
              <mxPoint x="250" y="120" />
            </Array>
          </mxGeometry>
        </mxCell>
        <mxCell id="drmTM1Dk9brN68vKP4_C-66" value="LoginAuthority" style="shape=table;startSize=30;container=1;collapsible=1;childLayout=tableLayout;fixedRows=1;rowLines=0;fontStyle=1;align=center;resizeLast=1;html=1;" parent="drmTM1Dk9brN68vKP4_C-78" vertex="1">
          <mxGeometry x="240" y="100" width="180" height="90" as="geometry" />
        </mxCell>
        <mxCell id="drmTM1Dk9brN68vKP4_C-67" value="" style="shape=tableRow;horizontal=0;startSize=0;swimlaneHead=0;swimlaneBody=0;fillColor=none;collapsible=0;dropTarget=0;points=[[0,0.5],[1,0.5]];portConstraint=eastwest;top=0;left=0;right=0;bottom=1;" parent="drmTM1Dk9brN68vKP4_C-66" vertex="1">
          <mxGeometry y="30" width="180" height="30" as="geometry" />
        </mxCell>
        <mxCell id="drmTM1Dk9brN68vKP4_C-68" value="FK" style="shape=partialRectangle;connectable=0;fillColor=none;top=0;left=0;bottom=0;right=0;fontStyle=1;overflow=hidden;whiteSpace=wrap;html=1;" parent="drmTM1Dk9brN68vKP4_C-67" vertex="1">
          <mxGeometry width="30" height="30" as="geometry">
            <mxRectangle width="30" height="30" as="alternateBounds" />
          </mxGeometry>
        </mxCell>
        <mxCell id="drmTM1Dk9brN68vKP4_C-69" value="LoginID" style="shape=partialRectangle;connectable=0;fillColor=none;top=0;left=0;bottom=0;right=0;align=left;spacingLeft=6;fontStyle=5;overflow=hidden;whiteSpace=wrap;html=1;" parent="drmTM1Dk9brN68vKP4_C-67" vertex="1">
          <mxGeometry x="30" width="150" height="30" as="geometry">
            <mxRectangle width="150" height="30" as="alternateBounds" />
          </mxGeometry>
        </mxCell>
        <mxCell id="drmTM1Dk9brN68vKP4_C-70" value="" style="shape=tableRow;horizontal=0;startSize=0;swimlaneHead=0;swimlaneBody=0;fillColor=none;collapsible=0;dropTarget=0;points=[[0,0.5],[1,0.5]];portConstraint=eastwest;top=0;left=0;right=0;bottom=0;" parent="drmTM1Dk9brN68vKP4_C-66" vertex="1">
          <mxGeometry y="60" width="180" height="30" as="geometry" />
        </mxCell>
        <mxCell id="drmTM1Dk9brN68vKP4_C-71" value="&lt;b&gt;FK&lt;/b&gt;" style="shape=partialRectangle;connectable=0;fillColor=none;top=0;left=0;bottom=0;right=0;editable=1;overflow=hidden;whiteSpace=wrap;html=1;" parent="drmTM1Dk9brN68vKP4_C-70" vertex="1">
          <mxGeometry width="30" height="30" as="geometry">
            <mxRectangle width="30" height="30" as="alternateBounds" />
          </mxGeometry>
        </mxCell>
        <mxCell id="drmTM1Dk9brN68vKP4_C-72" value="&lt;b&gt;&lt;u&gt;AuthorityID&lt;/u&gt;&lt;/b&gt;" style="shape=partialRectangle;connectable=0;fillColor=none;top=0;left=0;bottom=0;right=0;align=left;spacingLeft=6;overflow=hidden;whiteSpace=wrap;html=1;" parent="drmTM1Dk9brN68vKP4_C-70" vertex="1">
          <mxGeometry x="30" width="150" height="30" as="geometry">
            <mxRectangle width="150" height="30" as="alternateBounds" />
          </mxGeometry>
        </mxCell>
        <mxCell id="drmTM1Dk9brN68vKP4_C-76" value="" style="edgeStyle=entityRelationEdgeStyle;fontSize=12;html=1;endArrow=ERmany;rounded=0;exitX=1;exitY=0.5;exitDx=0;exitDy=0;entryX=0;entryY=0.5;entryDx=0;entryDy=0;" parent="drmTM1Dk9brN68vKP4_C-78" source="drmTM1Dk9brN68vKP4_C-49" target="drmTM1Dk9brN68vKP4_C-70" edge="1">
          <mxGeometry width="100" height="100" relative="1" as="geometry">
            <mxPoint x="50" y="280" as="sourcePoint" />
            <mxPoint x="240" y="180" as="targetPoint" />
          </mxGeometry>
        </mxCell>
        <mxCell id="drmTM1Dk9brN68vKP4_C-137" value="AuthorityValue" style="shape=partialRectangle;connectable=0;fillColor=none;top=0;left=0;bottom=0;right=0;align=left;spacingLeft=6;overflow=hidden;whiteSpace=wrap;html=1;" parent="drmTM1Dk9brN68vKP4_C-78" vertex="1">
          <mxGeometry x="30" y="260" width="150" height="30" as="geometry">
            <mxRectangle width="150" height="30" as="alternateBounds" />
          </mxGeometry>
        </mxCell>
        <mxCell id="drmTM1Dk9brN68vKP4_C-80" value="EALoginAuthority" style="swimlane;fontStyle=1;align=center;verticalAlign=top;childLayout=stackLayout;horizontal=1;startSize=26;horizontalStack=0;resizeParent=1;resizeParentMax=0;resizeLast=0;collapsible=1;marginBottom=0;whiteSpace=wrap;html=1;" parent="1" vertex="1">
          <mxGeometry x="600" y="40" width="160" height="60" as="geometry" />
        </mxCell>
        <mxCell id="drmTM1Dk9brN68vKP4_C-82" value="" style="line;strokeWidth=1;fillColor=none;align=left;verticalAlign=middle;spacingTop=-1;spacingLeft=3;spacingRight=3;rotatable=0;labelPosition=right;points=[];portConstraint=eastwest;strokeColor=inherit;" parent="drmTM1Dk9brN68vKP4_C-80" vertex="1">
          <mxGeometry y="26" width="160" height="8" as="geometry" />
        </mxCell>
        <mxCell id="drmTM1Dk9brN68vKP4_C-83" value="+ apply(EALogin): void" style="text;strokeColor=none;fillColor=none;align=left;verticalAlign=top;spacingLeft=4;spacingRight=4;overflow=hidden;rotatable=0;points=[[0,0.5],[1,0.5]];portConstraint=eastwest;whiteSpace=wrap;html=1;" parent="drmTM1Dk9brN68vKP4_C-80" vertex="1">
          <mxGeometry y="34" width="160" height="26" as="geometry" />
        </mxCell>
        <mxCell id="drmTM1Dk9brN68vKP4_C-87" value="&lt;span style=&quot;font-weight: normal;&quot;&gt;abstract&amp;nbsp;&lt;/span&gt;EAAuthority" style="swimlane;fontStyle=1;align=center;verticalAlign=top;childLayout=stackLayout;horizontal=1;startSize=26;horizontalStack=0;resizeParent=1;resizeParentMax=0;resizeLast=0;collapsible=1;marginBottom=0;whiteSpace=wrap;html=1;" parent="1" vertex="1">
          <mxGeometry x="600" y="120" width="160" height="52" as="geometry" />
        </mxCell>
        <mxCell id="drmTM1Dk9brN68vKP4_C-109" value="+ authorityValue: String" style="text;strokeColor=none;fillColor=none;align=left;verticalAlign=top;spacingLeft=4;spacingRight=4;overflow=hidden;rotatable=0;points=[[0,0.5],[1,0.5]];portConstraint=eastwest;whiteSpace=wrap;html=1;" parent="drmTM1Dk9brN68vKP4_C-87" vertex="1">
          <mxGeometry y="26" width="160" height="26" as="geometry" />
        </mxCell>
        <mxCell id="drmTM1Dk9brN68vKP4_C-89" value="" style="line;strokeWidth=1;fillColor=none;align=left;verticalAlign=middle;spacingTop=-1;spacingLeft=3;spacingRight=3;rotatable=0;labelPosition=right;points=[];portConstraint=eastwest;strokeColor=inherit;" parent="drmTM1Dk9brN68vKP4_C-87" vertex="1">
          <mxGeometry y="52" width="160" as="geometry" />
        </mxCell>
        <mxCell id="drmTM1Dk9brN68vKP4_C-92" value="&lt;span style=&quot;font-weight: normal;&quot;&gt;abstract&amp;nbsp;&lt;/span&gt;EALogin" style="swimlane;fontStyle=1;align=center;verticalAlign=top;childLayout=stackLayout;horizontal=1;startSize=26;horizontalStack=0;resizeParent=1;resizeParentMax=0;resizeLast=0;collapsible=1;marginBottom=0;whiteSpace=wrap;html=1;" parent="1" vertex="1">
          <mxGeometry x="410" y="134" width="160" height="86" as="geometry" />
        </mxCell>
        <mxCell id="drmTM1Dk9brN68vKP4_C-93" value="+ username: String" style="text;strokeColor=none;fillColor=none;align=left;verticalAlign=top;spacingLeft=4;spacingRight=4;overflow=hidden;rotatable=0;points=[[0,0.5],[1,0.5]];portConstraint=eastwest;whiteSpace=wrap;html=1;" parent="drmTM1Dk9brN68vKP4_C-92" vertex="1">
          <mxGeometry y="26" width="160" height="26" as="geometry" />
        </mxCell>
        <mxCell id="drmTM1Dk9brN68vKP4_C-96" value="+ password: String (BCrypt)" style="text;strokeColor=none;fillColor=none;align=left;verticalAlign=top;spacingLeft=4;spacingRight=4;overflow=hidden;rotatable=0;points=[[0,0.5],[1,0.5]];portConstraint=eastwest;whiteSpace=wrap;html=1;" parent="drmTM1Dk9brN68vKP4_C-92" vertex="1">
          <mxGeometry y="52" width="160" height="26" as="geometry" />
        </mxCell>
        <mxCell id="drmTM1Dk9brN68vKP4_C-94" value="" style="line;strokeWidth=1;fillColor=none;align=left;verticalAlign=middle;spacingTop=-1;spacingLeft=3;spacingRight=3;rotatable=0;labelPosition=right;points=[];portConstraint=eastwest;strokeColor=inherit;" parent="drmTM1Dk9brN68vKP4_C-92" vertex="1">
          <mxGeometry y="78" width="160" height="8" as="geometry" />
        </mxCell>
        <mxCell id="drmTM1Dk9brN68vKP4_C-97" value="EALoginDetails" style="swimlane;fontStyle=1;align=center;verticalAlign=top;childLayout=stackLayout;horizontal=1;startSize=26;horizontalStack=0;resizeParent=1;resizeParentMax=0;resizeLast=0;collapsible=1;marginBottom=0;whiteSpace=wrap;html=1;" parent="1" vertex="1">
          <mxGeometry x="410" y="-30" width="160" height="142" as="geometry" />
        </mxCell>
        <mxCell id="drmTM1Dk9brN68vKP4_C-98" value="+ login: EALogin" style="text;strokeColor=none;fillColor=none;align=left;verticalAlign=top;spacingLeft=4;spacingRight=4;overflow=hidden;rotatable=0;points=[[0,0.5],[1,0.5]];portConstraint=eastwest;whiteSpace=wrap;html=1;" parent="drmTM1Dk9brN68vKP4_C-97" vertex="1">
          <mxGeometry y="26" width="160" height="26" as="geometry" />
        </mxCell>
        <mxCell id="drmTM1Dk9brN68vKP4_C-99" value="- authorities: List&amp;lt;GrantedAuthorities&amp;gt;" style="text;strokeColor=none;fillColor=none;align=left;verticalAlign=top;spacingLeft=4;spacingRight=4;overflow=hidden;rotatable=0;points=[[0,0.5],[1,0.5]];portConstraint=eastwest;whiteSpace=wrap;html=1;" parent="drmTM1Dk9brN68vKP4_C-97" vertex="1">
          <mxGeometry y="52" width="160" height="38" as="geometry" />
        </mxCell>
        <mxCell id="drmTM1Dk9brN68vKP4_C-100" value="" style="line;strokeWidth=1;fillColor=none;align=left;verticalAlign=middle;spacingTop=-1;spacingLeft=3;spacingRight=3;rotatable=0;labelPosition=right;points=[];portConstraint=eastwest;strokeColor=inherit;" parent="drmTM1Dk9brN68vKP4_C-97" vertex="1">
          <mxGeometry y="90" width="160" height="8" as="geometry" />
        </mxCell>
        <mxCell id="drmTM1Dk9brN68vKP4_C-101" value="+ getAuthorities(): GrantedAuthorities" style="text;strokeColor=none;fillColor=none;align=left;verticalAlign=top;spacingLeft=4;spacingRight=4;overflow=hidden;rotatable=0;points=[[0,0.5],[1,0.5]];portConstraint=eastwest;whiteSpace=wrap;html=1;" parent="drmTM1Dk9brN68vKP4_C-97" vertex="1">
          <mxGeometry y="98" width="160" height="44" as="geometry" />
        </mxCell>
        <mxCell id="drmTM1Dk9brN68vKP4_C-102" style="edgeStyle=orthogonalEdgeStyle;rounded=0;orthogonalLoop=1;jettySize=auto;html=1;entryX=0;entryY=0.5;entryDx=0;entryDy=0;" parent="1" source="drmTM1Dk9brN68vKP4_C-93" target="drmTM1Dk9brN68vKP4_C-98" edge="1">
          <mxGeometry relative="1" as="geometry" />
        </mxCell>
        <mxCell id="drmTM1Dk9brN68vKP4_C-103" style="edgeStyle=orthogonalEdgeStyle;rounded=0;orthogonalLoop=1;jettySize=auto;html=1;entryX=0;entryY=0.5;entryDx=0;entryDy=0;" parent="1" source="drmTM1Dk9brN68vKP4_C-101" target="drmTM1Dk9brN68vKP4_C-83" edge="1">
          <mxGeometry relative="1" as="geometry" />
        </mxCell>
        <mxCell id="drmTM1Dk9brN68vKP4_C-104" style="edgeStyle=orthogonalEdgeStyle;rounded=0;orthogonalLoop=1;jettySize=auto;html=1;entryX=1;entryY=0.5;entryDx=0;entryDy=0;" parent="1" target="drmTM1Dk9brN68vKP4_C-83" edge="1">
          <mxGeometry relative="1" as="geometry">
            <mxPoint x="680.0344827586207" y="172" as="sourcePoint" />
            <Array as="points">
              <mxPoint x="680" y="200" />
              <mxPoint x="780" y="200" />
              <mxPoint x="780" y="87" />
            </Array>
          </mxGeometry>
        </mxCell>
        <mxCell id="drmTM1Dk9brN68vKP4_C-105" value="&lt;div&gt;&lt;i style=&quot;font-weight: normal;&quot;&gt;&amp;lt;&amp;lt;JpaRepository&amp;gt;&amp;gt;&lt;/i&gt;&lt;/div&gt;EALogin&lt;span style=&quot;color: light-dark(rgb(0, 0, 0), rgb(255, 255, 255)); background-color: transparent;&quot;&gt;Repository&lt;/span&gt;&lt;span style=&quot;background-color: transparent; color: light-dark(rgb(0, 0, 0), rgb(255, 255, 255));&quot;&gt;&amp;lt;L extends EALogin&amp;gt;&lt;/span&gt;" style="swimlane;fontStyle=1;align=center;verticalAlign=top;childLayout=stackLayout;horizontal=1;startSize=40;horizontalStack=0;resizeParent=1;resizeParentMax=0;resizeLast=0;collapsible=1;marginBottom=0;whiteSpace=wrap;html=1;" parent="1" vertex="1">
          <mxGeometry x="560" y="570" width="250" height="48" as="geometry" />
        </mxCell>
        <mxCell id="drmTM1Dk9brN68vKP4_C-107" value="" style="line;strokeWidth=1;fillColor=none;align=left;verticalAlign=middle;spacingTop=-1;spacingLeft=3;spacingRight=3;rotatable=0;labelPosition=right;points=[];portConstraint=eastwest;strokeColor=inherit;" parent="drmTM1Dk9brN68vKP4_C-105" vertex="1">
          <mxGeometry y="40" width="250" height="8" as="geometry" />
        </mxCell>
      </root>
    </mxGraphModel>
  </diagram>
</mxfile>
